<?xml version="1.0" encoding="UTF-8"?>
<svg width="300" height="300" version="1.1" xmlns="http://www.w3.org/2000/svg">
  <rect width="300" height="300" fill="#f5f5f5"/>
  <path d="M150 110c-27.614 0-50 22.386-50 50s22.386 50 50 50 50-22.386 50-50-22.386-50-50-50zm0 83.333c-18.409 0-33.333-14.924-33.333-33.333s14.924-33.333 33.333-33.333 33.333 14.924 33.333 33.333-14.924 33.333-33.333 33.333zm75-91.666h-20.833l-9.584-12.5h-89.166l-9.584 12.5h-20.833c-9.205 0-16.667 7.462-16.667 16.666v83.334c0 9.204 7.462 16.666 16.667 16.666h150c9.205 0 16.667-7.462 16.667-16.666v-83.334c0-9.204-7.462-16.666-16.667-16.666zm0 100h-150v-83.334h35.417l9.583-12.5h60l9.583 12.5h35.417v83.334z" fill="#cccccc"/>
</svg> 