<?xml version="1.0" encoding="UTF-8"?>
<svg width="300" height="300" viewBox="0 0 300 300" xmlns="http://www.w3.org/2000/svg">
  <rect width="100%" height="100%" fill="#f5f5f5"/>
  <path d="M150,120 C127.909,120 110,137.909 110,160 C110,182.091 127.909,200 150,200 C172.091,200 190,182.091 190,160 C190,137.909 172.091,120 150,120 Z M240,80 L205.714,80 L195,65 C193.347,62.2 190.347,60 187,60 L113,60 C109.653,60 106.653,62.2 105,65 L94.286,80 L60,80 C48.954,80 40,88.954 40,100 L40,220 C40,231.046 48.954,240 60,240 L240,240 C251.046,240 260,231.046 260,220 L260,100 C260,88.954 251.046,80 240,80 Z M150,210 C122.386,210 100,187.614 100,160 C100,132.386 122.386,110 150,110 C177.614,110 200,132.386 200,160 C200,187.614 177.614,210 150,210 Z" fill="#cccccc"/>
</svg> 